<svg height="512pt" viewBox="-70 0 512 512" width="512pt" xmlns="http://www.w3.org/2000/svg"><path d="m142.929688 210.113281-9.671876 21.085938h19.34375zm0 0"/><path d="m95.027344 95.023438v-86.191407l-86.191406 86.191407zm0 0"/><path d="m357.570312 0h-232.386718v110.101562c0 8.328126-6.75 15.078126-15.078125 15.078126h-110.105469v371.742187c0 8.328125 6.75 15.078125 15.078125 15.078125h342.492187c8.328126 0 15.078126-6.75 15.078126-15.078125v-481.84375c0-8.328125-6.75-15.078125-15.078126-15.078125zm-127.179687 215.28125c-8.328125 0-15.078125-6.75-15.078125-15.078125 0-8.324219 6.75-15.078125 15.078125-15.078125h10.636719v-10.636719c0-8.328125 6.75-15.078125 15.078125-15.078125s15.078125 6.75 15.078125 15.078125v10.636719h10.636718c8.328126 0 15.078126 6.753906 15.078126 15.078125 0 8.328125-6.75 15.078125-15.078126 15.078125h-10.636718v10.640625c0 8.324219-6.75 15.078125-15.078125 15.078125s-15.078125-6.753906-15.078125-15.078125v-10.640625zm-153.269531 65.960938 52.101562-113.578126.011719.003907c1.453125-3.167969 3.992187-5.855469 7.40625-7.421875 7.570313-3.472656 16.519531-.152344 19.992187 7.417968l52.101563 113.578126c3.472656 7.570312.152344 16.519531-7.417969 19.992187-2.035156.933594-4.171875 1.375-6.277344 1.375-5.710937 0-11.175781-3.261719-13.714843-8.792969l-14.886719-32.460937h-47.015625l-14.890625 32.460937c-2.535156 5.53125-8 8.792969-13.714844 8.792969-2.101562 0-4.238281-.441406-6.277344-1.375-7.570312-3.472656-10.890624-12.421875-7.417968-19.992187zm13.707031 51.296874h190.992187c8.328126 0 15.078126 6.75 15.078126 15.078126 0 8.328124-6.75 15.078124-15.078126 15.078124h-190.992187c-8.328125 0-15.078125-6.75-15.078125-15.078124 0-8.328126 6.75-15.078126 15.078125-15.078126zm0 46.015626h125.949219c8.324218 0 15.078125 6.75 15.078125 15.078124 0 8.328126-6.753907 15.078126-15.078125 15.078126h-125.949219c-8.328125 0-15.078125-6.75-15.078125-15.078126 0-8.328124 6.75-15.078124 15.078125-15.078124zm0 0"/></svg>