<svg height="512" viewBox="0 0 56 56" width="512" xmlns="http://www.w3.org/2000/svg"><g id="Page-1" fill="none" fill-rule="evenodd"><g id="001---Degree" fill="rgb(0,0,0)" fill-rule="nonzero" transform="translate(-1)"><path id="Shape" d="m42 20.8c-3.809-1.734-11.835-1.8-13-1.8s-9.191.066-13 1.8v-8.712c.6-.77 5.316-2.088 13-2.088s12.4 1.318 13 2.088zm-13 4.2c-7.4 0-12.047-1.222-12.916-2 .869-.778 5.518-2 12.916-2s12.047 1.222 12.916 2c-.869.778-5.516 2-12.916 2zm22-7h-2v-3c0-.5522847.4477153-1 1-1s1 .4477153 1 1zm0-5.856v-4.287l6 2.143zm-21.986-12.144 19.986 7.142v5.042c-.6323143.2247022-1.1712592.6545205-1.531 1.221l-3.469 1.237v-2.642c0-3.888-13.465-4-15-4s-15 .112-15 4v2.641l-13-4.641z"/><path id="Shape" d="m32.2 32.97c.4152824 1.5269614.6571423 3.0958635.721 4.677-2.2674172-1.0543305-4.9267377-.8071562-6.961.647-.0511494-1.7957543-.2812886-3.5819291-.687-5.332 1.2113333.0253333 2.4536667.038 3.727.038 1.093 0 2.154-.012 3.2-.03zm-2.2 16.03c-2.7614237 0-5-2.2385763-5-5s2.2385763-5 5-5 5 2.2385763 5 5c-.0033061 2.7600532-2.2399468 4.9966939-5 5zm-29-9c-.10347504-2.8678072.23378405-5.7345094 1-8.5.76621595 2.7654906 1.10347504 5.6321928 1 8.5.10347504 2.8678072-.23378405 5.7345094-1 8.5-.76621595-2.7654906-1.10347504-5.6321928-1-8.5zm3.023 8.671c.70615802-2.8346855 1.03466769-5.7502508.977-8.671.05767401-2.9210793-.27083509-5.8369759-.977-8.672 6.3532668.8774774 12.7498679 1.4059372 19.161 1.583.5997869 2.3136583.8744249 4.6995763.816 7.089 0 .145 0 .283-.006.422-1.2000273 1.9915849-1.3209621 4.4523451-.322 6.552l-.044.106c-6.5597407.1608297-13.1051631.6920088-19.605 1.591zm22.384 7.329-.73-1.68c-.219556-.5044532-.80536-.7368087-1.311-.52l-1.683.744 2.345-5.622c.9627521.9755678 2.1909675 1.6467048 3.532 1.93zm9.227-2.2c-.50564-.2168087-1.091444.0155468-1.311.52l-.74 1.663-2.144-5.133c1.342076-.2834163 2.5713104-.9548878 3.535-1.931l2.34 5.6zm20.166-4.85c-6.4246827-.9887912-12.9030696-1.5898786-19.4-1.8l-.071-.172c1.2576047-2.6500536.718457-5.8041476-1.348-7.886-.0077336-2.0738531-.24722-4.1403459-.714-6.161 7.2107886-.1614607 14.4035315-.7901117 21.533-1.882.464.788 1.2 3.905 1.2 8.951s-.741 8.162-1.2 8.95z"/></g></g></svg>