<?xml version="1.0" encoding="utf-8"?>
<!-- Generator: Adobe Illustrator 23.0.1, SVG Export Plug-In . SVG Version: 6.00 Build 0)  -->
<svg version="1.1" id="logo" xmlns="http://www.w3.org/2000/svg"
	 xmlns:xlink="http://www.w3.org/1999/xlink" x="0px" y="0px"
	 viewBox="0 0 147 65" style="enable-background:new 0 0 147 65;" xml:space="preserve">
<style type="text/css">
	.st0{fill:#27A1DA;}
	.st1{fill:#904A9B;}
</style>
<path class="st0" d="M40.9,45c-0.8-1.3-1.3-2.7-1.8-4.1c-1.4-4-2.3-8-2.2-12.2c0-3.7,0.9-7.3,2.4-10.7c2.6-5.7,6.5-10.3,11.5-14.2
	c0.1,0,0.2-0.1,0.3-0.2c0.1,0.2,0.1,0.4,0.1,0.6c0,4.4,0,8.8,0,13.2c0,0.3,0,0.5-0.3,0.7c-5.2,3.5-8.4,8.3-9.9,14.2
	c-0.7,2.8-0.8,5.7-0.5,8.7C40.4,42.3,40.7,43.6,40.9,45z"/>
<path class="st0" d="M39.3,44.4c-1.1-0.7-2.1-1.5-3-2.4c-3.4-3.2-6.2-6.8-8-11.1c-1.5-3.4-2.2-6.9-1.9-10.5
	c0.3-4.1,1.2-8.1,3.2-11.7c0.9-1.8,2.1-3.4,3.5-4.9c0.1-0.1,0.2-0.2,0.3-0.3c0.4,1.1,0.8,2.2,1.2,3.2c0.9,2.5,1.7,5,2.6,7.4
	c0.1,0.3,0.1,0.6-0.1,0.9c-1.9,3.2-3,6.7-3.5,10.4c-0.2,2.1-0.5,4.1-0.2,6.2c0.2,1.4,0.6,2.8,1,4.1c1,3,2.5,5.7,4.6,8.2
	C39.1,44.1,39.2,44.2,39.3,44.4C39.3,44.3,39.3,44.4,39.3,44.4z"/>
<path class="st0" d="M73.9,53.9c-1.5,0.2-2.9,0.4-4.4,0.6c-2.2,0.3-4.4,0.7-6.6,1.3c-2.5,0.6-5,1.3-7.4,2.2
	c-0.9,0.3-1.7,0.7-2.6,1.2c-0.4,0.2-0.6,0.1-0.9-0.2c-0.8-1-1.8-1.8-2.8-2.6c-1.9-1.5-5-1.3-6.8,0.1c-1,0.8-1.9,1.6-2.7,2.6
	c-0.2,0.2-0.3,0.3-0.7,0.1c-3.1-1.5-6.5-2.5-9.9-3.1c-3.8-0.7-7.7-0.9-11.6-0.7c-2.9,0.1-5.8,0.5-8.6,1.1c-2.3,0.4-4.5,1-6.8,1.7
	c0.3-1.3,0.7-2.6,1-3.9c0.2-1,0.5-1.9,0.8-2.8c0-0.2,0-0.5,0.4-0.5c1.2-0.1,2.5-0.3,3.8-0.5c-0.3,0.9-0.6,1.6-0.8,2.3
	c-0.2,0.6-0.2,0.6,0.4,0.5c3.7-0.7,7.4-0.9,11.1-0.9c3.6,0,7.1,0.4,10.6,1.1c3.1,0.6,6.1,1.4,9,2.6c0.4,0.1,0.6,0.1,1-0.2
	c1.2-1.3,2.6-2.5,4.4-3c2.6-0.7,5-0.5,7.1,1.4c0.5,0.5,1.1,1.1,1.6,1.7c0.1,0.2,0.3,0.2,0.5,0.1c2.3-0.8,4.7-1.4,7.1-1.8
	c3.6-0.6,7.2-1,10.9-0.8c0.9,0,1.7,0,2.6,0.1c0.1,0,0.2,0,0.2,0C73.9,53.8,73.9,53.9,73.9,53.9z"/>
<path class="st0" d="M40.1,47.4c-2.7-0.1-5.4-0.3-8.1-0.8c-2.2-0.4-4.4-0.9-6.6-1.5c-4.7-1.4-9-3.6-12.3-7.2c-2.1-2.4-3.9-4.9-4.8-8
	c0-0.3-0.3-0.6-0.1-0.8c0.2-0.2,0.5,0,0.8,0.1c2.4,0.6,4.8,1.2,7.1,1.7c0.3,0,0.4,0.2,0.5,0.4c1.4,2.5,3.2,4.7,5.3,6.8
	c2.9,2.8,6.2,5.1,9.9,6.7C34.6,46,37.3,46.8,40.1,47.4z"/>
<path class="st0" d="M38.5,45.9c-1.1-0.2-2.1-0.7-3.1-1.1c-5.4-2.5-10-6-13.9-10.4c-2.6-2.9-3.9-6.3-4.6-10
	c-0.3-1.9-0.4-3.8-0.3-5.7c0-0.1,0-0.2,0-0.4c0.4,0.1,0.7,0.4,1,0.7c2,1.5,4,3,6,4.5c0.3,0.2,0.4,0.4,0.4,0.8
	c0.4,3.6,1.3,7,3.1,10.1c0.9,1.7,2.2,3.2,3.5,4.7c2.1,2.4,4.3,4.7,7.1,6.4C37.9,45.5,38.2,45.7,38.5,45.9z"/>
<path class="st0" d="M99.8,19.5c13.9,0,27.7,0,41.6,0c1,0,0.8-0.1,0.8,0.8c0,11.4,0,22.8,0,34.2c0,0.6-0.2,0.7-0.7,0.7
	c-19.7,0-39.4,0-59.1,0c-0.1,0-0.3,0-0.5,0c-0.1,0-0.2-0.1-0.2-0.2c0-0.1,0-0.3,0.2-0.3c0.1,0,0.3,0,0.5,0c19.5,0,39,0,58.5,0
	c0.6,0,0.7-0.1,0.7-0.7c0-11.2,0-22.3,0-33.4c0-0.5-0.1-0.6-0.6-0.6c-27.6,0-55.2,0-82.8,0c-0.1,0-0.2,0-0.3,0c-0.2,0-0.4,0-0.4-0.3
	c0-0.3,0.2-0.2,0.4-0.2c0.3,0,0.6,0,0.9,0C72.4,19.5,86.2,19.5,99.8,19.5z"/>
<path class="st1" d="M56.8,34.3c0.1,0.3,0.3,0.2,0.5,0.3c1.8,0.4,2.8,1.6,3.2,3.3c0.2,0.9,0.4,1.7,0.7,2.6c0.1,0.3,0.2,0.5,0.4,0.8
	c0.4,0.6,1,0.6,1.4,0c0.2-0.4,0.4-0.9,0.3-1.4c0-0.3,0.1-0.4,0.4-0.4c0.4,0,0.3,0.2,0.3,0.5c0,0.6-0.1,1.2-0.3,1.7
	c-0.4,1.2-1.5,1.9-2.7,1.8c-1.2-0.1-2.2-0.9-2.4-2.2c-0.2-1.3-0.4-2.5-0.6-3.8c-0.3-1.9-1.6-2.6-3.3-2.7C53,34.5,53,34.6,53,36.3
	c0,1.6,0,3.3,0,4.9c0,0.9,0.2,1.1,1.1,1.1c0.4,0,0.9,0,1.3,0c0.3,0,0.4,0.1,0.4,0.4c0,0.2,0,0.4-0.4,0.4c-2.5,0-4.9,0-7.4,0
	c-0.3,0-0.3-0.1-0.4-0.4c0-0.3,0-0.4,0.4-0.4c0.5,0,1,0,1.5,0c0.7,0,1-0.3,1-1c0-4.5,0-9,0-13.5c0-0.6-0.3-1-1-1c-0.5,0-0.9,0-1.4,0
	c-0.3,0-0.4-0.1-0.4-0.4c0-0.2,0-0.4,0.3-0.4c3.1,0,6.2,0,9.2,0c0.9,0,1.8,0.2,2.7,0.6c1.6,0.8,2.5,2.4,2.3,4
	c-0.2,1.6-1.4,2.9-3.1,3.3C58.4,34.1,57.6,34.3,56.8,34.3z M52.9,30.6c0,1,0,1.9,0,2.8c0,0.2,0,0.4,0.3,0.4c1.2,0,2.5,0,3.8-0.2
	c1.4-0.3,2.2-1.1,2.4-2.5c0.1-0.5,0-1.1,0-1.6c-0.1-1.5-0.9-2.4-2.3-2.6c-1.1-0.1-2.3-0.2-3.5,0c-0.5,0.1-0.8,0.3-0.7,0.9
	C53,28.7,52.9,29.6,52.9,30.6z"/>
<path class="st1" d="M112.4,34.1c1,0.2,1.8,0.5,2.6,0.9c1.4,0.7,2.3,1.8,2.4,3.5c0,1.6-0.8,2.8-2.3,3.6c-1.3,0.7-2.6,1.1-4.1,1.1
	c-2.9,0-5.9,0-8.8,0c-0.3,0-0.6,0-0.5-0.4c0-0.5,0.3-0.4,0.6-0.4c0.4,0,0.7,0,1.1,0c0.7,0,1-0.3,1-1.1c0-2.8,0-5.6,0-8.4
	c0-1.5,0-3.1,0-4.7c0-1-0.3-1.3-1.3-1.3c-0.3,0-0.6,0-0.9,0c-0.3,0-0.5,0-0.5-0.4c0-0.3,0.1-0.4,0.4-0.4c3,0,6.1,0,9,0
	c1.5,0,3,0.3,4.1,1.4c1.6,1.6,1.4,4.1-0.4,5.5C114.3,33.4,113.5,33.8,112.4,34.1z M107,38.2c0,1,0,2,0,3c0,0.8,0.3,1.1,1.1,1.1
	c1,0,1.9,0,2.9,0c1.4-0.1,2.7-0.5,3.3-1.9c0.2-0.4,0.2-0.9,0.3-1.4c0.1-2-0.7-3.9-3.1-4.2c-1.4-0.2-2.8,0-4.2-0.1
	c-0.3,0-0.3,0.2-0.3,0.4C107,36.1,107,37.1,107,38.2z M107,30.5c0,1,0,1.9,0,2.8c0,0.4,0.1,0.4,0.5,0.4c1,0,2.1,0,3.2,0
	c1.5,0,2.5-0.8,2.9-2.2c0.2-0.7,0.2-1.5,0.1-2.2c-0.1-1.2-0.8-2.1-2-2.3c-1.3-0.3-2.5-0.3-3.8-0.1c-0.5,0-0.8,0.3-0.8,0.9
	C107,28.7,107,29.6,107,30.5z"/>
<path class="st1" d="M94.6,34.1c1,0.2,1.9,0.5,2.7,1c1.4,0.7,2.2,1.8,2.2,3.4c0,1.6-0.7,2.8-2.2,3.6c-1.2,0.7-2.5,1.1-4,1.1
	c-3,0-6.1,0-9.1,0c-0.3,0-0.5,0-0.5-0.4c0-0.4,0.1-0.4,0.5-0.4c0.4,0,0.9,0,1.3,0c0.7,0,0.9-0.3,0.9-1c0-4.4,0-8.9,0-13.3
	c0-0.8-0.3-1.2-1.2-1.2c-0.3,0-0.7,0-1,0c-0.3,0-0.5,0-0.5-0.4c0-0.4,0.2-0.4,0.5-0.4c3,0,6,0,8.9,0c1.1,0,2.2,0.2,3.3,0.8
	c2.7,1.5,2.8,5,0,6.5C96,33.6,95.3,33.8,94.6,34.1z M89.1,38.2c0,1,0,2,0,3c0,0.8,0.3,1.1,1.1,1.1c0.9,0,1.8,0,2.7,0
	c1.8,0,3.5-0.6,3.8-3.1c0.2-2.2-0.6-4.1-3.2-4.4c-1.4-0.2-2.8,0-4.2,0c-0.3,0-0.2,0.2-0.2,0.4C89.1,36.1,89.1,37.1,89.1,38.2z
	 M89.1,30.6c0,1,0,1.9,0,2.8c0,0.3,0.1,0.4,0.4,0.4c1.1,0,2.2,0,3.3,0c1.2,0,2.2-0.6,2.7-1.7c0.3-0.7,0.4-1.4,0.3-2.2
	c-0.1-1.8-0.8-2.8-2.6-3c-1.1-0.1-2.2-0.2-3.3,0c-0.7,0.1-0.9,0.3-0.9,1C89.1,28.7,89.1,29.7,89.1,30.6z"/>
<path class="st1" d="M72.9,37.4c-1,0-2,0-3,0c-0.3,0-0.5,0-0.6,0.3c-0.2,0.8-0.5,1.5-0.8,2.2c-0.4,1.4,0.1,2.2,1.6,2.3
	c0.1,0,0.3,0,0.5,0c0.3,0,0.4,0.1,0.4,0.4s-0.1,0.4-0.4,0.4c-1.8,0-3.7,0-5.6,0c-0.3,0-0.4,0-0.4-0.4c0-0.3,0-0.4,0.4-0.5
	c1,0,1.7-0.6,2-1.5c1.4-3.5,2.9-6.9,4.3-10.4c0.6-1.4,1.2-2.9,1.8-4.4c0.1-0.2,0.2-0.4,0.5-0.4c0.3,0,0.4,0.1,0.5,0.4
	c1.1,2.8,2.2,5.5,3.3,8.3c0.9,2.4,1.9,4.7,2.8,7.1c0.2,0.7,0.8,1,1.5,0.9c0.2,0,0.5,0,0.5,0.4c0,0.4-0.2,0.4-0.5,0.4
	c-2,0-3.9,0-5.9,0c-0.3,0-0.5,0-0.5-0.4c0-0.4,0.2-0.5,0.5-0.4c0.4,0,0.9,0,1.3-0.1c0.5-0.1,0.7-0.5,0.5-0.9
	c-0.4-1.2-0.9-2.4-1.4-3.6c-0.1-0.2-0.3-0.2-0.5-0.2C75,37.4,73.9,37.4,72.9,37.4z M76.1,36.6c-1-2.6-2-5.1-3-7.6
	c-0.2,0-0.2,0.2-0.2,0.3c-0.4,1.1-0.9,2.3-1.4,3.4C71,33.9,70.5,35,70,36.2c-0.1,0.2-0.3,0.5,0.2,0.5C72.1,36.6,74.1,36.6,76.1,36.6
	z"/>
<path class="st1" d="M132.4,34.5c0-2.2,0-4.3,0-6.5c0-1-0.1-1.2-1.2-1.3c-0.4,0-0.8,0-1.2,0c-0.3,0-0.4-0.1-0.4-0.4
	c0-0.3,0.1-0.4,0.4-0.4c2.4,0,4.9,0,7.3,0c0.3,0,0.4,0.1,0.4,0.4c0,0.3-0.1,0.4-0.4,0.4c-0.5,0-1.1,0-1.6,0
	c-0.5,0.1-0.7,0.4-0.7,0.8c0,0.4,0,0.9,0,1.4c0,4,0,8,0,12c0,1.1,0.2,1.3,1.3,1.3c0.3,0,0.7,0,1.1,0c0.3,0,0.5,0,0.5,0.4
	c0,0.3-0.1,0.4-0.4,0.4c-2.4,0-4.9,0-7.3,0c-0.3,0-0.4,0-0.4-0.4c0-0.3,0.1-0.4,0.4-0.4c0.4,0,0.9,0,1.4,0c0.7,0,1-0.2,1-1
	c0-0.9,0-1.8,0-2.8C132.4,37.2,132.4,35.8,132.4,34.5z"/>
<path class="st1" d="M122.1,34.5c0-2.2,0-4.4,0-6.6c0-0.8-0.2-1.1-1.1-1.1c-0.4,0-0.9,0-1.3,0c-0.4,0-0.4-0.2-0.4-0.5
	c0-0.3,0.1-0.4,0.4-0.4c2.4,0,4.9,0,7.2,0c0.3,0,0.4,0.1,0.4,0.4c0,0.3-0.1,0.4-0.4,0.4c-0.5,0-1,0-1.5,0c-0.5,0-0.8,0.4-0.8,0.9
	c0,0.1,0,0.3,0,0.5c0,4.2,0,8.5,0,12.7c0,1.2,0.2,1.4,1.4,1.4c0.3,0,0.6,0,0.9,0c0.3,0,0.5,0,0.5,0.4c0,0.4-0.2,0.4-0.5,0.4
	c-2.4,0-4.8,0-7.2,0c-0.3,0-0.4,0-0.5-0.4c0-0.4,0.1-0.4,0.5-0.4c0.4,0,0.9,0,1.3,0c0.7,0,1-0.2,1-1C122.2,39,122.1,36.8,122.1,34.5
	z"/>
<path class="st1" d="M123.6,47.9c-0.2,0.7-0.5,1.3-0.8,2c-0.1,0.1-0.1,0.3-0.3,0.3c-0.2,0-0.3-0.2-0.4-0.3c-0.2-0.6-0.5-1.3-0.8-2
	c-0.1,0.7-0.2,1.3-0.2,1.8c0,0.2,0,0.5-0.3,0.5c-0.3,0-0.2-0.3-0.2-0.5c0-0.9,0.1-1.7,0.1-2.6c0-0.1,0-0.4,0.3-0.4
	c0.2,0,0.4,0.1,0.4,0.3c0.3,0.8,0.6,1.6,0.9,2.5c0.3-0.8,0.6-1.6,0.9-2.4c0.1-0.2,0.1-0.5,0.5-0.4c0.3,0,0.2,0.3,0.2,0.5
	c0.1,0.9,0.1,1.7,0.1,2.6c0,0.2,0.1,0.3-0.2,0.4c-0.3,0-0.3-0.2-0.3-0.4C123.7,49.2,123.7,48.5,123.6,47.9
	C123.7,47.9,123.7,47.9,123.6,47.9z"/>
<path class="st1" d="M110.2,49.3c0-0.8,0-1.5,0-2.1c0-0.2-0.1-0.4,0.2-0.4c0.3,0,0.2,0.2,0.2,0.4c0,0.9,0,1.8,0,2.7
	c0,0.1,0.1,0.3-0.1,0.4c-0.2,0-0.3,0-0.5-0.2c-0.5-0.8-1.1-1.5-1.8-2.4c0,0.8,0,1.5,0,2.2c0,0.2,0.1,0.5-0.3,0.4
	c-0.3,0-0.2-0.2-0.2-0.4c0-0.9,0-1.7,0-2.6c0-0.1-0.1-0.4,0.1-0.4c0.2,0,0.4,0,0.5,0.2c0.5,0.7,0.9,1.3,1.4,2
	C110,49,110,49.1,110.2,49.3z"/>
<path class="st1" d="M62.3,47.6c0,0.9,0,1.5,0,2.2c0,0.2,0,0.4-0.2,0.4c-0.3,0-0.2-0.2-0.2-0.4c0-0.9,0-1.7,0-2.6
	c0-0.2-0.1-0.4,0.2-0.5c0.3,0,0.4,0.1,0.6,0.3c0.5,0.7,1,1.4,1.7,2.3c0-0.8,0-1.4,0-2.1c0-0.2-0.1-0.5,0.2-0.5
	c0.3,0,0.2,0.3,0.2,0.5c0,0.8,0,1.6,0,2.5c0,0.2,0.1,0.4-0.1,0.5c-0.3,0.1-0.4-0.1-0.5-0.3C63.4,49.1,62.9,48.4,62.3,47.6z"/>
<path class="st1" d="M57.6,48.4c0-0.5,0-0.9,0-1.4c0-0.2,0-0.3,0.3-0.3c0.2,0,0.3,0.1,0.3,0.3v0c0,0.3-0.2,0.9,0.1,1
	c0.4,0.2,1,0,1.5,0c0.2,0,0.2-0.2,0.2-0.3c0-0.3,0-0.6,0-0.9c0-0.2,0.1-0.3,0.3-0.3s0.3,0.1,0.3,0.3c0,1,0,1.9,0,2.9
	c0,0.2,0,0.3-0.2,0.3c-0.2,0-0.3-0.1-0.3-0.3c0,0,0-0.1,0-0.1c-0.1-1.3-0.1-1.3-1.4-1.2c-0.3,0-0.4,0.1-0.3,0.4c0,0.3,0,0.6,0,0.9
	c0,0.2,0,0.3-0.3,0.3c-0.2,0-0.3-0.1-0.3-0.3C57.6,49.4,57.6,48.9,57.6,48.4z"/>
<path class="st1" d="M133.1,48.4c0-0.4,0-0.9,0-1.3c0-0.3,0-0.5,0.4-0.5s0.7,0,1.1,0.1c0.7,0.1,1.2,0.6,1.3,1.2
	c0.1,0.8-0.1,1.6-0.8,1.9c-0.5,0.3-1.1,0.3-1.7,0.3c-0.2,0-0.3-0.1-0.3-0.4C133.1,49.4,133.1,48.9,133.1,48.4z M133.6,48.4
	c0,0.3,0,0.6,0,0.9c0,0.2,0,0.3,0.2,0.3c0.5,0,1-0.1,1.3-0.5c0.3-0.4,0.3-0.9,0.1-1.4c-0.2-0.4-0.9-0.8-1.5-0.6
	c-0.4,0.1-0.1,0.5-0.2,0.8C133.5,48.1,133.6,48.3,133.6,48.4z"/>
<path class="st1" d="M79.4,47.5c-0.3-0.2-0.7-0.3-1-0.3c-0.7,0-1.2,0.5-1.3,1.3c0,0.7,0.4,1.3,1.1,1.4c0.1,0,0.3,0,0.4,0
	c0.3,0,0.3-0.2,0.3-0.5c0-0.3-0.1-0.3-0.4-0.3c-0.2,0-0.4,0-0.3-0.2c0-0.3,0.2-0.2,0.4-0.2c0.2,0,0.4,0,0.6,0c0.1,0,0.2,0,0.2,0
	c0.2,0.2,0,1.5-0.3,1.6c-0.8,0.3-1.7,0.1-2.1-0.5c-0.5-0.6-0.5-1.6,0-2.3c0.5-0.6,1.4-0.8,2.2-0.5C79.4,46.9,79.4,46.9,79.4,47.5z"
	/>
<path class="st1" d="M103.5,48.4c0-1.1,0.7-1.7,1.7-1.7c0.9,0,1.5,0.7,1.5,1.8c0,1.1-0.6,1.8-1.7,1.7
	C104.1,50.2,103.5,49.5,103.5,48.4z M104,48.4c0,0.7,0.5,1.4,1.1,1.4c0.6,0,1.1-0.6,1.1-1.4c0-0.8-0.4-1.3-1.1-1.3
	C104.5,47.1,104,47.7,104,48.4z"/>
<path class="st1" d="M69,48.4c0,1.1-0.6,1.8-1.7,1.7c-0.9,0-1.6-0.7-1.6-1.7c0-1.1,0.6-1.8,1.6-1.8C68.3,46.6,69,47.4,69,48.4z
	 M68.4,48.4c0-0.8-0.4-1.3-1.1-1.3c-0.6,0-1.1,0.5-1.1,1.3c0,0.7,0.5,1.4,1.1,1.4C68,49.8,68.4,49.2,68.4,48.4z"/>
<path class="st1" d="M91.3,48.4c0,1.1-0.6,1.7-1.6,1.7c-1,0-1.6-0.7-1.6-1.7c0-1.1,0.6-1.8,1.7-1.8C90.7,46.6,91.3,47.4,91.3,48.4z
	 M90.7,48.5c0-0.8-0.4-1.4-1-1.4s-1.1,0.5-1.1,1.3c0,0.7,0.4,1.4,1,1.4C90.2,49.8,90.7,49.3,90.7,48.5z"/>
<path class="st1" d="M74.1,50.2c-1,0-1.6-0.7-1.6-1.7c0-1.1,0.6-1.8,1.6-1.8c1,0,1.6,0.7,1.6,1.7C75.7,49.5,75.1,50.2,74.1,50.2z
	 M73,48.5c0,0.8,0.4,1.3,1,1.3c0.6,0,1.1-0.6,1.1-1.4c0-0.8-0.4-1.3-1.1-1.3C73.4,47.1,73,47.7,73,48.5z"/>
<path class="st1" d="M97.2,47.9c0-0.3,0-0.6,0-0.9c0-0.2,0-0.3,0.2-0.3c0.2,0,0.2,0.1,0.2,0.3c0,0.7,0,1.4,0,2.1
	c0,0.6-0.5,1.1-1.1,1.1c-0.8,0-1.3-0.2-1.5-0.9c-0.2-0.8,0-1.6-0.1-2.4c0-0.2,0.1-0.2,0.2-0.2c0.2,0,0.2,0.1,0.2,0.3
	c0,0.7,0,1.4,0,2c0,0.6,0.7,0.9,1.2,0.6c0.3-0.1,0.4-0.4,0.4-0.7C97.2,48.6,97.2,48.3,97.2,47.9C97.2,47.9,97.2,47.9,97.2,47.9z"/>
<path class="st1" d="M130.2,48.4c0-0.4,0-0.9,0-1.4c0-0.2,0-0.4,0.3-0.4c0.4,0,0.8,0,1.2,0c0.1,0,0.2,0.1,0.2,0.2
	c0,0.2-0.1,0.2-0.2,0.2c-0.1,0-0.2,0-0.3,0c-0.5,0-0.8,0.4-0.6,0.9c0.1,0.2,0.4,0.1,0.6,0.1c0.2,0,0.5-0.1,0.5,0.2
	c0,0.3-0.3,0.2-0.5,0.2c-0.6,0-0.8,0.2-0.6,0.9c0.1,0.2,0.1,0.2,0.3,0.2c0.2,0,0.4,0,0.6,0c0.2,0,0.2,0.1,0.2,0.3
	c0,0.1,0,0.2-0.2,0.2c-0.4,0-0.8,0-1.2,0c-0.2,0-0.2-0.2-0.2-0.4c0-0.2,0-0.5,0-0.7C130.2,48.9,130.2,48.7,130.2,48.4z"/>
<path class="st1" d="M51.2,48.4c0-0.5,0-0.9,0-1.4c0-0.2,0-0.3,0.3-0.3c0.4,0,0.8,0,1.2,0c0.1,0,0.2,0.1,0.2,0.2
	c0,0.2-0.1,0.2-0.3,0.2c-0.1,0-0.2,0-0.3,0c-0.5,0-0.8,0.5-0.5,0.9c0.1,0.2,0.4,0.1,0.6,0.1c0.2,0,0.4-0.1,0.5,0.2
	c0,0.3-0.3,0.2-0.5,0.2c-0.6,0-0.8,0.2-0.6,0.8c0,0.2,0.1,0.2,0.2,0.2c0.2,0,0.4,0,0.6,0c0.2,0,0.3,0,0.3,0.2c0,0.2-0.1,0.2-0.2,0.2
	c-0.4,0-0.8,0-1.2,0c-0.2,0-0.2-0.2-0.2-0.3C51.2,49.4,51.2,48.9,51.2,48.4z"/>
<path class="st1" d="M85.2,49.5c0.2,0.1,0.5,0.1,0.7,0.2c0.3,0,0.5,0,0.7-0.3c0.1-0.3,0-0.5-0.3-0.7c-0.2-0.1-0.5-0.2-0.8-0.4
	C85.1,48,85,47.5,85.3,47c0.3-0.4,1.3-0.6,1.6-0.3C87,46.8,87,46.9,87,47c0,0.2-0.2,0.1-0.3,0c-0.3,0-0.8-0.2-1,0.3
	c-0.1,0.6,0.4,0.6,0.7,0.8c0.7,0.3,0.9,0.9,0.6,1.4c-0.2,0.5-1.2,0.7-1.7,0.4C85.1,49.9,85.1,49.9,85.2,49.5z"/>
<path class="st1" d="M113.3,47.1c-0.2,0-0.3,0-0.5,0c-0.2,0-0.3,0.1-0.4,0.3c0,0.2,0,0.4,0.2,0.5c0.3,0.1,0.5,0.3,0.8,0.4
	c0.4,0.2,0.5,0.5,0.5,1c0,0.4-0.3,0.7-0.7,0.8c-0.4,0.1-0.8,0.1-1.2-0.1c-0.1-0.1-0.1-0.2-0.1-0.4c0.1-0.2,0.2,0,0.3,0
	c0.1,0,0.1,0,0.2,0.1c0.3,0.1,0.7,0.1,0.9-0.3c0.1-0.4-0.1-0.6-0.4-0.7c-0.1,0-0.3-0.1-0.4-0.2c-0.3-0.1-0.6-0.4-0.6-0.8
	c0-0.4,0.1-0.7,0.5-0.8c0.4-0.2,0.8-0.2,1.2,0c0.1,0,0.1,0.2,0.1,0.3C113.6,47.4,113.4,47.1,113.3,47.1z"/>
<path class="st1" d="M53.9,48.5c0-1.3,1-2.1,2.2-1.7c0.2,0,0.5,0.1,0.4,0.4s-0.3,0-0.4,0c-1.2-0.1-1.9,0.6-1.5,1.7
	c0.2,0.7,0.7,1,1.5,0.8c0.1,0,0.3-0.2,0.4,0c0.1,0.2-0.1,0.3-0.3,0.4C55.1,50.5,53.9,49.7,53.9,48.5z"/>
<path class="st1" d="M81.7,48.2c0.2-0.4,0.4-0.8,0.7-1.2c0.1-0.2,0.3-0.5,0.5-0.3c0.2,0.1,0,0.3-0.1,0.5c-0.5,0.8-1,1.6-0.8,2.6
	c0,0.2,0,0.3-0.2,0.3c-0.2,0-0.2-0.1-0.2-0.3c0.2-1.1-0.4-1.8-0.9-2.7c-0.1-0.1-0.3-0.3-0.1-0.5c0.2-0.1,0.4,0,0.5,0.3
	C81.2,47.4,81.4,47.8,81.7,48.2z"/>
<path class="st1" d="M116.2,48.4c0-0.5,0-0.9,0-1.4c0-0.2,0.1-0.3,0.3-0.3s0.2,0.2,0.2,0.3c0,0.7,0,1.4,0,2c0,0.5,0,0.7,0.6,0.6
	c0.1,0,0.2,0,0.3,0c0.1,0,0.1,0.1,0.1,0.2c0,0.1,0,0.2-0.1,0.2c-0.1,0-0.1,0-0.2,0c-1.3,0.1-1.3,0.1-1.3-1.2
	C116.2,48.8,116.2,48.6,116.2,48.4z"/>
<path class="st1" d="M70.6,48.2c0,0.2,0,0.4,0,0.6c-0.1,0.6,0,1,0.8,0.9c0.1,0,0.3,0,0.3,0.2c0,0.2-0.1,0.2-0.3,0.2h0
	c-1.3,0.1-1.3,0.1-1.3-1.2c0-0.6,0-1.3,0-1.8c0-0.2,0-0.4,0.3-0.5c0.3,0,0.3,0.2,0.3,0.4C70.7,47.5,70.6,47.9,70.6,48.2z"/>
<path class="st1" d="M99.6,48.7c0-0.3,0-0.5,0-0.8c0-0.4,0-0.8-0.6-0.7c-0.1,0-0.2,0-0.2-0.2c0-0.1,0.1-0.2,0.2-0.2
	c0.6,0,1.1,0,1.7,0c0.2,0,0.2,0.1,0.2,0.2c0,0.2-0.1,0.2-0.2,0.2c-0.6-0.1-0.6,0.2-0.6,0.7c0,0.7,0,1.3,0,2c0,0.1,0,0.3-0.2,0.4
	c-0.3,0-0.3-0.2-0.3-0.4C99.6,49.4,99.6,49.1,99.6,48.7z"/>
<path class="st1" d="M49.2,46.7c0.3,0,0.5,0,0.8,0c0.2,0,0.3,0.1,0.3,0.3s-0.1,0.2-0.3,0.2c-0.5-0.1-0.6,0.2-0.6,0.6
	c0,0.7,0,1.4,0,2c0,0.2,0,0.4-0.3,0.4c-0.3,0-0.2-0.2-0.2-0.4c0-0.7,0-1.4,0-2.2c0-0.3-0.1-0.5-0.4-0.4c-0.2,0-0.4,0-0.4-0.2
	c0-0.3,0.2-0.2,0.4-0.2C48.7,46.7,48.9,46.7,49.2,46.7z"/>
<path class="st1" d="M127.8,48.6c0-0.3,0-0.6,0-0.9c0-0.4,0.1-0.7-0.5-0.6c-0.1,0-0.3,0-0.3-0.2c0-0.2,0.1-0.2,0.3-0.2
	c0.5,0,1,0,1.5,0c0.2,0,0.3,0,0.3,0.2c0,0.2-0.2,0.2-0.3,0.2c-0.5-0.1-0.5,0.1-0.5,0.6c0,0.7,0,1.4,0,2.1c0,0.1,0,0.3-0.2,0.4
	c-0.3,0-0.3-0.2-0.3-0.4C127.8,49.4,127.8,49,127.8,48.6z"/>
<path class="st1" d="M92.3,48.4c0-0.4,0-0.9,0-1.3c0-0.2-0.1-0.5,0.3-0.4c0.3,0,0.2,0.2,0.2,0.4c0,0.7,0,1.4,0,2.1
	c0,0.3,0,0.5,0.4,0.4c0.1,0,0.3,0,0.5,0c0.1,0,0.2,0,0.2,0.2c0,0.2-0.1,0.3-0.3,0.2h0c-1.3,0.1-1.3,0.1-1.3-1.2
	C92.3,48.8,92.3,48.6,92.3,48.4z"/>
<path class="st1" d="M102.4,48.4c0,0.5,0,0.9,0,1.4c0,0.2,0,0.3-0.3,0.3c-0.2,0-0.3-0.1-0.3-0.3c0-0.9,0-1.8,0-2.8
	c0-0.2,0-0.4,0.3-0.4c0.2,0,0.2,0.2,0.2,0.4C102.4,47.5,102.4,48,102.4,48.4z"/>
<path class="st1" d="M119.5,48.4c0,0.5,0,0.9,0,1.4c0,0.2,0,0.3-0.2,0.3c-0.2,0-0.3-0.1-0.3-0.3c0-1,0-1.9,0-2.8
	c0-0.2,0.1-0.3,0.3-0.3c0.2,0,0.2,0.2,0.2,0.4C119.5,47.5,119.5,48,119.5,48.4z"/>
<path class="st1" d="M125.4,48.4c0-0.5,0-0.9,0-1.4c0-0.2,0-0.3,0.2-0.3c0.2,0,0.2,0.1,0.2,0.3c0,1,0,1.9,0,2.9c0,0.1,0,0.3-0.2,0.3
	c-0.2,0-0.2-0.1-0.2-0.3C125.4,49.4,125.4,48.9,125.4,48.4z"/>
</svg>
