<?xml version="1.0" encoding="iso-8859-1"?>
<!-- Generator: Adobe Illustrator 19.0.0, SVG Export Plug-In . SVG Version: 6.00 Build 0)  -->
<svg version="1.1" id="Capa_1" xmlns="http://www.w3.org/2000/svg" xmlns:xlink="http://www.w3.org/1999/xlink" x="0px" y="0px"
	 viewBox="0 0 512 512" style="enable-background:new 0 0 512 512;" xml:space="preserve">
<g>
	<g>
		<path d="M256,301c-8.271,0-15-6.729-15-15c0-6.042,3.596-11.468,9.159-13.825c6.717-2.844,14.755-0.417,22.059,6.659
			c5.951,5.765,15.445,5.614,21.211-0.335c5.764-5.95,5.614-15.446-0.336-21.21c-6.771-6.561-14.3-11.198-22.093-13.815V226
			c0-8.284-6.716-15-15-15s-15,6.716-15,15v17.571c-18.373,6.537-30,23.651-30,42.429c0,24.813,20.187,45,45,45
			c8.271,0,15,6.729,15,15c0,6.286-3.965,11.953-9.866,14.103c-7.7,2.806-16.674-0.999-24.606-10.444
			c-5.327-6.343-14.788-7.167-21.134-1.839c-6.344,5.328-7.167,14.79-1.839,21.134c8.109,9.654,17.549,16.275,27.445,19.608V406
			c0,8.284,6.716,15,15,15s15-6.716,15-15v-17.573c0.134-0.047,0.268-0.088,0.401-0.136C289.105,381.843,301,364.847,301,346
			C301,321.187,280.813,301,256,301z"/>
	</g>
</g>
<g>
	<g>
		<path d="M321.807,163.214C327.569,155.651,331,146.22,331,136c0-16.212-8.62-30.446-21.516-38.368l49.038-74.375
			c3.038-4.607,3.301-10.51,0.685-15.368C356.591,3.03,351.519,0,346,0h-28.108c-14.021,0-27.601,4.111-39.267,11.889L256,26.972
			l-22.625-15.083C221.709,4.111,208.13,0,194.108,0H166c-5.519,0-10.591,3.03-13.207,7.889c-2.616,4.858-2.354,10.761,0.685,15.368
			l49.038,74.375C189.62,105.554,181,119.788,181,136c0,10.22,3.43,19.65,9.192,27.213C94.086,204.902,31,299.721,31,406
			c0,58.449,47.103,106,105,106c2.541,0,237.812,0,240,0c57.897,0,105-47.552,105-106C481,299.723,417.914,204.903,321.807,163.214z
			 M193.857,30h0.251c8.08,0,15.903,2.369,22.626,6.851l30.945,20.63c5.037,3.359,11.604,3.359,16.641,0l30.945-20.63
			C301.988,32.369,309.812,30,317.892,30h0.251l-40.22,61h-43.846L193.857,30z M301,136c0,8.271-6.729,15-15,15h-60
			c-8.271,0-15-6.729-15-15s6.729-15,15-15h60C294.271,121,301,127.729,301,136z M376,482h-16.886
			C378.767,462.726,391,435.78,391,406c0-8.284-6.716-15-15-15s-15,6.716-15,15c0,41.907-33.645,76-75,76h-60
			c-41.355,0-75-34.093-75-76c0-8.284-6.716-15-15-15s-15,6.716-15,15c0,29.78,12.233,56.726,31.886,76H136
			c-41.355,0-75-34.094-75-76.001c0-101.202,64.507-190.695,160.517-222.693l6.917-2.306h55.132l6.929,2.31
			C386.497,215.311,451,304.803,451,406C451,447.907,417.355,482,376,482z"/>
	</g>
</g>
<g>
</g>
<g>
</g>
<g>
</g>
<g>
</g>
<g>
</g>
<g>
</g>
<g>
</g>
<g>
</g>
<g>
</g>
<g>
</g>
<g>
</g>
<g>
</g>
<g>
</g>
<g>
</g>
<g>
</g>
</svg>
