<svg id="support" enable-background="new 0 0 512 512" height="512" viewBox="0 0 512 512"
     width="512"
     xmlns="http://www.w3.org/2000/svg"><path d="m223.28 155.219c16.24 0 31.36 10.64 31.36 28.419 0 30.24-44.38 40.04-44.38 54.6v3.36h38.92c3.08 0 5.74 3.64 5.74 7.84s-2.66 8.12-5.74 8.12h-49.84c-3.22 0-7.98-2.24-7.98-5.74v-13.58c0-22.4 45.08-34.3 45.08-54.04 0-5.74-3.78-12.46-13.02-12.46-6.86 0-12.46 3.64-12.46 12.32 0 3.36-3.5 6.72-9.52 6.72-4.76 0-8.26-2.24-8.26-9.8 0-15.959 14.56-25.759 30.1-25.759z"/><path d="m294.961 235.299h-33.6c-3.5 0-6.16-2.38-6.16-6.44 0-1.12.28-2.38.98-3.64l33.18-65.24c1.68-3.5 4.76-4.76 7.7-4.76 3.22 0 9.1 2.8 9.1 7 0 .7-.28 1.54-.7 2.38l-26.88 53.76h16.38v-14.7c0-4.06 4.62-5.74 9.1-5.74 4.62 0 9.1 1.68 9.1 5.74v14.7h6.58c3.78 0 5.74 4.2 5.74 8.54 0 4.2-2.8 8.4-5.74 8.4h-6.58v16.52c0 3.78-4.48 5.74-9.1 5.74-4.48 0-9.1-1.96-9.1-5.74z"/><path d="m289.781 327.793c0 2.94-1.82 7.28-3.5 10.64l-35.419 68.04c-.98 1.82-2.8 2.66-5.18 2.66-5.74 0-11.48-3.92-11.48-9.1 0-1.12.14-2.1.84-3.22l36.54-65.52v-9.24h-29.26v11.34c0 3.36-4.48 5.88-9.24 5.88-4.9 0-8.96-2.52-8.96-5.88v-21.56c0-2.8 3.92-5.74 7.98-5.74h49.7c3.5 0 7.98 2.94 7.98 5.74v15.96z"/><path d="m168.755 76.865 61.794 35.677c6.909 3.989 15.155 3.988 22.062 0s11.03-11.13 11.03-19.105v-9.039c47.065 1.984 91.023 21.292 124.479 54.843 35.241 35.34 54.643 82.289 54.634 132.199-.005 26.461-5.372 52.003-15.951 75.918-10.224 23.111-24.798 43.605-43.318 60.915-3.026 2.828-3.187 7.574-.358 10.601 1.477 1.58 3.477 2.379 5.481 2.379 1.834 0 3.673-.669 5.12-2.021 20.004-18.696 35.749-40.836 46.794-65.805 11.43-25.837 17.228-53.42 17.233-81.983.01-53.91-20.948-104.621-59.012-142.793-38.056-38.163-88.691-59.266-142.58-59.42-1.988-.032-3.906.782-5.317 2.189s-2.204 3.318-2.204 5.311v16.708c0 3.68-2.469 5.502-3.53 6.115s-3.875 1.84-7.062 0l-61.794-35.677c-3.187-1.84-3.531-4.889-3.531-6.115s.344-4.276 3.531-6.116l61.794-35.676c1.15-.664 2.379-1 3.627-.967 3.424.06 6.965 2.725 6.965 7.082v16.232c0 4.135 3.347 7.49 7.482 7.5 35.78.085 69.975 8.299 101.635 24.413 3.69 1.877 8.207.41 10.086-3.282 1.879-3.691.409-8.207-3.282-10.086-31.562-16.064-65.478-24.769-100.92-25.915v-8.862c0-11.965-9.736-21.871-21.702-22.08-3.969-.062-7.899.959-11.39 2.975l-61.794 35.676c-6.907 3.988-11.031 11.13-11.031 19.106-.002 7.974 4.122 15.116 11.029 19.103z"/><path d="m392.7 73.691c-3.402-2.366-8.075-1.522-10.438 1.88-2.364 3.401-1.522 8.075 1.88 10.438 60.766 42.221 97.038 111.54 97.026 185.43-.009 60.422-23.433 117.113-65.957 159.63-42.523 42.516-99.218 65.931-159.641 65.931-56.723 0-110.939-21.131-152.661-59.5-41.473-38.14-67.055-89.924-72.034-145.813-.289-3.242.773-6.362 2.989-8.784 2.258-2.468 5.344-3.828 8.688-3.828 6.095 0 11.113 4.649 11.673 10.813 4.537 50.029 27.492 96.365 64.639 130.475 37.377 34.321 85.927 53.223 136.707 53.223 42.328 0 82.814-12.85 117.082-37.161 3.378-2.396 4.174-7.078 1.777-10.457-2.396-3.379-7.079-4.173-10.457-1.777-31.716 22.501-69.201 34.395-108.402 34.395-47.012 0-91.959-17.499-126.562-49.272-34.393-31.581-55.646-74.475-59.845-120.781-1.265-13.943-12.705-24.458-26.611-24.458-7.495 0-14.695 3.172-19.755 8.703-5.018 5.485-7.519 12.862-6.862 20.24 5.31 59.617 32.592 114.85 76.82 155.523 44.498 40.922 102.32 63.458 162.814 63.458 64.429 0 124.891-24.975 170.247-70.323 45.356-45.349 70.341-105.806 70.351-170.235.012-78.802-38.668-152.727-103.468-197.75z"/><path d="m177.779 275.969c-4.142 0-7.5 3.358-7.5 7.5s3.358 7.5 7.5 7.5h157.646c4.142 0 7.5-3.358 7.5-7.5s-3.358-7.5-7.5-7.5z"/></svg>
