<?xml version="1.0" encoding="utf-8"?>
<!-- Generator: Adobe Illustrator 23.0.1, SVG Export Plug-In . SVG Version: 6.00 Build 0)  -->
<svg version="1.1" id="teacher-icon" xmlns="http://www.w3.org/2000/svg"
	 xmlns:xlink="http://www.w3.org/1999/xlink" x="0px" y="0px"
	 viewBox="0 0 355.7 315.7" style="enable-background:new 0 0 355.7 315.7;" xml:space="preserve">
<g>
	<g>
		<circle cx="103.4" cy="43" r="42.1"/>
	</g>
</g>
<g>
	<g>
		<path d="M354.9,1.9c-1.5-2.1-4.4-2.6-6.5-1.1l-90.5,65c-9.5-3.2-20.2,1.2-24.7,10.5l-5.3,11.1l-13.1,9.4c-0.2,0.2-0.5,0.4-0.7,0.6
			c-5.5,4.6-5.3,13.2,0.6,17.6l-8.2,17l-24.7-22.5c-7.3-6.6-16.7-10.3-26.5-10.4c-41.8-0.3-66.2,0.2-106.5,0.2
			c-26.3,0-48.6,20.6-48.8,46.9v149.1c-0.1,11.2,9,20.3,20.2,20.4h0.1c8.1,0,15.1-4.7,18.3-11.6c0.2-0.6,0.5-1.2,0.7-1.8
			c0.8-2.1,1.2-4.4,1.2-6.8v-149c0-2.4,2-4.4,4.4-4.4s4.4,2,4.4,4.4v143.6c0.4-0.1,0.9-0.2,1.4-0.2c18.6,0,37.1,0.4,55.7,0.5
			c16.9,0,33.8-0.9,50.8-0.9V142.4l42.3,37.9c10.1,9,26,5.7,31.8-6.4L269.7,94c2.4-4.9,2.5-10.3,1-15.1L354,8.3
			C355.9,6.7,356.3,3.9,354.9,1.9z"/>
	</g>
</g>
</svg>
